<?xml version="1.0" encoding="UTF-8"?>
<svg width="19px" height="19px" viewBox="0 0 19 19" version="1.1" xmlns="http://www.w3.org/2000/svg" xmlns:xlink="http://www.w3.org/1999/xlink">
    <!-- Generator: Sketch 57.1 (83088) - https://sketch.com -->
    <title>menu</title>
    <desc>Created with Sketch.</desc>
    <g id="Full-Mircosite" stroke="none" stroke-width="1" fill="none" fill-rule="evenodd">
        <g id="01-P-fullPage-3-**-Copy-4" transform="translate(-333.000000, -111.000000)" fill="#000" fill-rule="nonzero">
            <path d="M333.714081,111.714081 C334.10848,111.319683 334.747845,111.319683 335.142244,111.714081 L335.142244,111.714081 L342.584379,119.156282 L349.910672,111.831136 C350.274733,111.467076 350.847551,111.439101 351.243701,111.747129 L351.338835,111.831136 C351.733233,112.225534 351.733233,112.8649 351.338835,113.259298 L351.338835,113.259298 L344.012379,120.584282 L351.391751,127.963588 C351.755779,128.327617 351.783811,128.900433 351.475764,129.29661 L351.391751,129.391751 C350.997352,129.786149 350.357952,129.786115 349.963588,129.391751 L349.963588,129.391751 L342.584379,122.012282 L335.089328,129.508805 C334.725299,129.872834 334.152483,129.900865 333.756306,129.592819 L333.661165,129.508805 C333.266767,129.114407 333.266801,128.475007 333.661165,128.080643 L333.661165,128.080643 L341.156379,120.584282 L333.714081,113.142244 C333.350021,112.778183 333.322046,112.205365 333.630074,111.809215 Z" id="menu"></path>
        </g>
    </g>
</svg>