<svg width="90" height="23" viewBox="0 0 90 23" fill="none" xmlns="http://www.w3.org/2000/svg">
<g opacity="0.7">
<path fill-rule="evenodd" clip-rule="evenodd" d="M89.8605 17.357C86.0996 23.7334 80.1433 21.8831 78.3544 20.4345C77.5932 20.9511 76.2581 22.0832 74.4781 21.9526C70.6871 21.6742 69.3294 16.2567 69.3294 16.2567C69.3567 16.2784 68.2003 16.6558 67.5752 16.6491C67.5671 18.2378 66.1938 22.0329 62.4875 21.9844C58.3284 21.9302 57.4829 15.7339 57.4829 15.7339C57.4829 15.7339 57.069 16.3086 55.4953 16.881C55.5745 15.6605 55.5166 21.7986 50.5318 21.8889C46.591 21.9602 45.5272 15.6383 45.5272 15.6383C45.5272 15.6383 44.8435 16.3485 43.5186 16.5948C43.6029 15.3544 43.466 21.9097 38.4805 21.8889C35.1115 21.8748 33.9602 17.9945 34.0498 17.456C34.164 16.7696 32.9111 21.9854 29.6386 21.9041C28.2881 21.8644 27.2812 20.8867 26.6495 19.583C25.8038 20.5508 24.5758 21.9041 23.1983 21.9041C20.7257 21.9041 19.6356 19.836 19.8202 13.9291C19.8359 13.2286 19.7854 12.953 19.089 12.8482C18.671 12.7785 18.2428 12.6464 17.79 12.5767C17.6448 13.0612 16.4134 21.7465 12.1792 21.9113C10.7588 21.9667 9.98207 20.7362 9.3442 19.8228C8.36641 21.1163 7.07567 21.9526 5.2369 21.9526C2.12217 21.9526 0 19.4346 0 16.3285C0 13.2223 2.12217 10.7046 5.2369 10.7046C5.78761 10.7046 5.94221 10.7835 6.44533 10.9303C5.41066 1.50992 7.85413 0.0376421 9.99165 0.0376421C12.0437 0.0376421 15.5496 4.8006 10.6166 16.882C11.7118 20.4855 14.0729 20.2817 15.2076 12.8636C15.4384 11.3557 14.8209 9.32091 15.7814 9.03691C17.537 8.51789 17.7233 10.0751 18.5464 10.3346C19.4168 10.6088 19.9248 10.582 20.7604 10.7565C22.1882 11.0353 22.7454 11.8023 22.5714 13.5106C22.3625 15.6722 21.9971 18.8183 23.1113 19.2017C23.9147 19.4803 25.3818 17.814 25.6392 16.9023C25.8965 15.9905 25.9503 15.6785 25.9732 15.0098C26.008 13.5806 26.0517 12.5329 26.2954 11.452C26.3997 11.0337 26.5186 10.7567 26.9918 10.7378C27.3812 10.7279 28.0932 10.6106 28.4067 10.8546C28.8245 11.1685 28.7723 11.487 28.7243 12.3254C28.2384 24.2781 31.9781 18.3112 33.0932 13.5335C32.6962 8.13106 32.9688 0.136571 36.3542 0.00248817C38.1149 -0.0672421 38.8932 1.34327 38.9789 2.39608C39.221 5.3696 37.8645 10.2952 36.0805 13.6076C35.061 20.3665 40.5385 21.7029 41.4145 16.308C39.9813 15.6266 38.4325 12.8686 39.6928 11.5245C40.4 10.7702 43.3439 11.8539 43.3921 14.2172C44.8361 13.8311 45.0289 13.0158 45.0489 13.1509C44.6519 7.74843 45.0201 0.13664 48.4057 0.0025572C50.1662 -0.0671731 50.9445 1.34334 51.0301 2.39615C51.2723 5.36966 49.9157 10.2953 48.132 13.6077C47.1122 20.3665 52.59 21.703 53.4657 16.3081C52.4047 16.1033 50.1648 13.1699 51.4572 11.5246C52.1478 10.6454 55.0808 12.4737 55.4092 14.2956C56.7965 13.9029 56.9848 13.1135 57.0047 13.2465C56.6076 7.84418 56.9758 0.232383 60.3614 0.0983009C62.1219 0.0285707 62.9002 1.43908 62.9858 2.49189C63.228 5.46541 61.8715 10.3911 60.0875 13.7036C59.0679 20.4624 64.5455 21.7986 65.4214 16.4037C63.9634 16.1609 61.8911 13.0635 63.559 11.4789C64.2253 10.8458 66.7715 12.4892 67.3675 14.3642C68.1957 14.3323 68.7111 14.0468 68.8216 14.018C67.4995 7.67582 68.4837 0.0661714 72.1258 0.00265018C74.0942 -0.0316494 76.0188 1.06686 75.174 7.10057C74.3677 12.8574 71.4694 15.2734 71.4761 15.3103C71.6448 16 73.1319 21.7719 76.8772 18.7264C76.6833 18.2874 76.4892 17.8389 76.3807 17.2956C75.76 14.1308 76.9792 10.5562 80.2933 9.97842C82.192 9.64742 83.9806 10.5719 84.2634 12.6559C84.7287 16.066 81.6494 18.5358 80.4784 19.0715C79.954 18.7735 85.2326 22.1589 88.3653 15.3745C88.5469 14.9872 88.766 15.02 89.0496 15.2196C89.25 15.3606 90.3914 16.4418 89.8605 17.357ZM7.50259 15.4906C7.34319 15.014 7.01607 13.964 6.90041 13.509C6.26335 12.9551 5.80864 12.865 4.99092 12.865C3.17369 12.865 2.10409 14.5452 2.10409 16.3569C2.10409 18.1685 3.26934 19.8489 5.08657 19.8489C6.66142 19.8489 7.86002 18.7781 8.2257 17.2624C7.96975 16.6715 7.71585 16.1283 7.50259 15.4906ZM9.94712 2.53129C8.67023 2.53129 8.23708 5.57731 8.32115 8.17586C8.39549 10.4733 9.03747 12.496 9.37049 13.4021C9.45504 13.5157 9.43935 13.4418 9.51482 13.5623C11.7319 8.70458 10.8123 2.53129 9.94712 2.53129ZM36.5366 2.62696C34.8862 2.43769 34.8969 9.31251 35.1018 10.8546C35.9589 9.48343 37.4479 2.99616 36.5366 2.62696ZM48.5879 2.62696C46.9375 2.43769 46.9481 9.31251 47.1531 10.8546C48.0101 9.48343 49.4991 2.99616 48.5879 2.62696ZM60.5436 2.72261C58.8932 2.53334 58.9038 9.40818 59.1088 10.9504C59.9658 9.5791 61.4548 3.09179 60.5436 2.72261ZM72.3079 2.22453C69.7366 2.74087 70.3353 11.3139 70.7259 12.8175C73.7547 8.65758 73.817 2.06827 72.3079 2.22453ZM81.9444 12.938C81.8137 12.3914 81.16 12.0992 80.7088 12.1712C79.4178 12.3475 78.1656 13.9554 78.6504 16.4035C78.7581 16.9487 79.0282 17.4505 79.0238 17.4339C81.9132 15.4954 82.1588 13.9679 81.9444 12.938ZM27.498 8.84556C27.129 8.84563 26.7682 8.73627 26.4614 8.53131C26.1545 8.32635 25.9154 8.03501 25.7741 7.69411C25.6329 7.35322 25.5959 6.9781 25.6678 6.61618C25.7398 6.25427 25.9175 5.92182 26.1784 5.66088C26.4393 5.39994 26.7717 5.22224 27.1336 5.15024C27.4955 5.07824 27.8706 5.11518 28.2115 5.25639C28.5525 5.3976 28.8438 5.63673 29.0488 5.94355C29.2538 6.25037 29.3632 6.61109 29.3632 6.98008C29.3632 7.22505 29.315 7.46761 29.2213 7.69394C29.1275 7.92026 28.9901 8.1259 28.8169 8.29913C28.6437 8.47235 28.4381 8.60977 28.2118 8.70352C27.9855 8.79728 27.7429 8.84554 27.498 8.84556Z" fill="#866211"/>
</g>
</svg>
